<?xml version="1.0" standalone="no"?>
<!DOCTYPE svg PUBLIC "-//W3C//DTD SVG 20010904//EN"
 "http://www.w3.org/TR/2001/REC-SVG-20010904/DTD/svg10.dtd">
<svg version="1.0" xmlns="http://www.w3.org/2000/svg"
 width="260.000000pt" height="260.000000pt" viewBox="0 0 260.000000 260.000000"
 preserveAspectRatio="xMidYMid meet">
<metadata>
Created by potrace 1.11, written by Peter Selinger 2001-2013
</metadata>
<g transform="translate(0.000000,260.000000) scale(0.100000,-0.100000)"
fill="#000000" stroke="none">
<path d="M1170 2554 c-349 -55 -530 -232 -539 -525 -9 -294 151 -449 549 -533
229 -49 264 -58 335 -91 133 -61 179 -134 179 -280 0 -72 -4 -99 -22 -136
-115 -236 -550 -266 -945 -64 l-88 45 3 -137 3 -136 70 -23 c80 -26 211 -59
270 -69 22 -4 51 -9 65 -12 56 -10 311 -12 371 -2 109 17 114 18 180 39 182
56 313 190 351 360 48 212 -3 413 -136 538 -101 94 -228 145 -488 197 -297 59
-385 103 -422 212 -21 62 -16 177 11 228 68 128 209 186 438 180 140 -3 258
-31 409 -94 l97 -40 -3 126 -3 126 -45 13 c-87 27 -196 53 -245 60 -27 3 -54
8 -58 11 -11 6 -303 12 -337 7z"/>
<path d="M60 130 l0 -90 1240 0 1240 0 0 90 0 90 -1240 0 -1240 0 0 -90z"/>
</g>
</svg>
