<?xml version="1.0" encoding="UTF-8" standalone="no"?>
<!-- Generated by IcoMoon.io -->

<svg
   xmlns:dc="http://purl.org/dc/elements/1.1/"
   xmlns:cc="http://creativecommons.org/ns#"
   xmlns:rdf="http://www.w3.org/1999/02/22-rdf-syntax-ns#"
   xmlns:svg="http://www.w3.org/2000/svg"
   xmlns="http://www.w3.org/2000/svg"
   xmlns:sodipodi="http://sodipodi.sourceforge.net/DTD/sodipodi-0.dtd"
   xmlns:inkscape="http://www.inkscape.org/namespaces/inkscape"
   version="1.1"
   width="512"
   height="512"
   viewBox="0 0 512 512"
   id="svg2"
   inkscape:version="0.91 r13725"
   sodipodi:docname="cyan_wordpress.svg">
  <metadata
     id="metadata20">
    <rdf:RDF>
      <cc:Work
         rdf:about="">
        <dc:format>image/svg+xml</dc:format>
        <dc:type
           rdf:resource="http://purl.org/dc/dcmitype/StillImage" />
        <dc:title></dc:title>
      </cc:Work>
    </rdf:RDF>
  </metadata>
  <defs
     id="defs18" />
  <sodipodi:namedview
     pagecolor="#ffffff"
     bordercolor="#666666"
     borderopacity="1"
     objecttolerance="10"
     gridtolerance="10"
     guidetolerance="10"
     inkscape:pageopacity="0"
     inkscape:pageshadow="2"
     inkscape:window-width="1858"
     inkscape:window-height="1057"
     id="namedview16"
     showgrid="false"
     inkscape:zoom="0.921875"
     inkscape:cx="170.4296"
     inkscape:cy="285.26074"
     inkscape:window-x="54"
     inkscape:window-y="-8"
     inkscape:window-maximized="1"
     inkscape:current-layer="svg2" />
  <g
     id="g4"
     style="fill:#67d5b5;fill-opacity:1"
     inkscape:export-xdpi="90"
     inkscape:export-ydpi="90" />
  <path
     d="M453.499 256.676c0-20.459-3.164-40.263-8.899-58.819l-88.177 228.833c58.082-34.365 97.075-97.618 97.075-170.014z"
     fill="#000000"
     id="path6"
     style="fill:#67d5b5;fill-opacity:1"
     inkscape:export-xdpi="90"
     inkscape:export-ydpi="90" />
  <path
     d="M193.628 443.884c19.63 6.594 40.642 10.137 62.526 10.137 22.866 0 44.769-3.87 65.188-11.029l-60.242-156.18-67.471 157.072z"
     fill="#000000"
     id="path8"
     style="fill:#67d5b5;fill-opacity:1"
     inkscape:export-xdpi="90"
     inkscape:export-ydpi="90" />
  <path
     d="M66.837 200.888c-5.212 17.684-8.059 36.403-8.059 55.787 0 73.954 40.714 138.393 100.894 172.155l-92.231-226.703-0.604-1.239z"
     fill="#000000"
     id="path10"
     style="fill:#67d5b5;fill-opacity:1"
     inkscape:export-xdpi="90"
     inkscape:export-ydpi="90" />
  <path
     d="M167.383 188.16l-8.478-0.379c-18.494-0.307-16.446 18.893-16.446 18.893l65.618 164.577 44.114-105.37-24.627-62.7c-9.861-16.578-33.925-16.404-33.925-16.404v-8.734h137.974l-0.205 9.687-14.356 0.891c-17.879 0-14.264 17.008-14.264 17.008l59.873 159.939 17.162-44.288c30.443-69.017 11.663-120.094 11.663-120.094-30.485-62.72 8.038-71.721 8.038-71.721 2.437-0.348 4.721-0.542 6.963-0.645-36.199-42.537-90.122-69.519-150.323-69.519-81.398 0-151.316 49.326-181.474 119.706l92.365-0.952 0.327 10.107z"
     fill="#000000"
     id="path12"
     style="fill:#67d5b5;fill-opacity:1"
     inkscape:export-xdpi="90"
     inkscape:export-ydpi="90" />
  <path
     d="M477.839 256.021c0 122.306-99.522 221.839-221.798 221.839-122.338 0-221.86-99.533-221.86-221.839 0-122.338 99.522-221.829 221.86-221.829 122.276 0.010 221.798 99.492 221.798 221.829zM256.041 23.972c-127.939 0-232.048 104.11-232.048 232.059s104.11 232.007 232.048 232.007c127.918 0 231.957-104.059 231.957-232.007 0-127.949-104.038-232.059-231.957-232.059z"
     fill="#000000"
     id="path14"
     style="fill:#67d5b5;fill-opacity:1"
     inkscape:export-xdpi="90"
     inkscape:export-ydpi="90" />
</svg>
