<?xml version="1.0" encoding="UTF-8" standalone="no"?>
<!-- Created with Inkscape (http://www.inkscape.org/) -->

<svg
   xmlns:dc="http://purl.org/dc/elements/1.1/"
   xmlns:cc="http://creativecommons.org/ns#"
   xmlns:rdf="http://www.w3.org/1999/02/22-rdf-syntax-ns#"
   xmlns:svg="http://www.w3.org/2000/svg"
   xmlns="http://www.w3.org/2000/svg"
   xmlns:sodipodi="http://sodipodi.sourceforge.net/DTD/sodipodi-0.dtd"
   xmlns:inkscape="http://www.inkscape.org/namespaces/inkscape"
   width="207mm"
   height="164mm"
   viewBox="0 0 733.46456 581.10211"
   id="svg2"
   version="1.1"
   inkscape:version="0.91 r13725"
   inkscape:export-filename="/opt/lampp/htdocs/olegsorokin/images/test_jquery.png"
   inkscape:export-xdpi="48.846153"
   inkscape:export-ydpi="48.846153"
   sodipodi:docname="inkscape_css_and_html.svg">
  <defs
     id="defs4" />
  <sodipodi:namedview
     id="base"
     pagecolor="#ffffff"
     bordercolor="#666666"
     borderopacity="1.0"
     inkscape:pageopacity="0.0"
     inkscape:pageshadow="2"
     inkscape:zoom="0.7"
     inkscape:cx="326.7604"
     inkscape:cy="468.98432"
     inkscape:document-units="px"
     inkscape:current-layer="layer1"
     showgrid="false"
     inkscape:window-width="1920"
     inkscape:window-height="1025"
     inkscape:window-x="0"
     inkscape:window-y="36"
     inkscape:window-maximized="0" />
  <metadata
     id="metadata7">
    <rdf:RDF>
      <cc:Work
         rdf:about="">
        <dc:format>image/svg+xml</dc:format>
        <dc:type
           rdf:resource="http://purl.org/dc/dcmitype/StillImage" />
        <dc:title></dc:title>
      </cc:Work>
    </rdf:RDF>
  </metadata>
  <g
     inkscape:label="Layer 1"
     inkscape:groupmode="layer"
     id="layer1"
     transform="translate(0,-471.26015)">
    <g
       transform="matrix(0.92392844,0,0,0.98604915,-156.49135,243.37899)"
       id="layer1-5"
       inkscape:label="Calque 1"
       style="fill:#ffff00;fill-opacity:1">
      <g
         transform="translate(95.428571,270.18109)"
         id="g3013"
         style="fill:#ffff00;fill-opacity:1">
        <path
           id="polygon2989"
           transform="translate(74.632999,0)"
           d="M 0,100.61914 33.011719,470.87695 181.14453,512 329.6875,470.81836 362.73438,100.61914 0,100.61914 Z m 67.498047,75.68555 113.712893,0 0.15625,0 0,0.17969 112.91601,0 -8.19726,91.9121 -1.10938,12.19336 -10.66992,119.55078 -0.68359,7.67188 -92.25586,25.56836 0,0.0176 -0.20899,0.0586 -0.0332,-0.01 -0.5957,0.16601 0,-0.33008 -92.390628,-25.64843 -6.363281,-71.30274 21.009769,0 24.57617,0 3.23242,36.21875 50.55859,13.65039 50.02344,-13.50195 5.27149,-58.89258 -55.91797,0 0,-0.17969 -100.783206,0 -4.06836,-45.41015 105.689456,0 0,0.17968 59.01758,0 4.13281,-46.50195 -63.98828,0 0,-0.17773 -108.902347,0 -4.128906,-45.41211 z"
           style="fill:#ffff00;fill-opacity:1"
           inkscape:connector-curvature="0" />
        <path
           id="polygon2991"
           transform="translate(74.632999,0)"
           d="m 181.36719,130.89453 0,45.41016 113.59765,0 -8.19922,91.91211 -1.10742,12.19336 -10.67187,119.55273 -0.68164,7.67188 -92.9375,25.75781 0,47.13086 120.02929,-33.27735 28.24024,-316.35156 -148.26953,0 z m 0,90.82227 0,46.5 59.69922,0 4.13086,-46.5 -63.83008,0 z m 0,91.91015 0,72.52149 50.49023,-13.62696 5.27149,-58.89453 -55.76172,0 z"
           style="fill:#ffff00;fill-opacity:1"
           inkscape:connector-curvature="0" />
        <path
           inkscape:connector-curvature="0"
           d="m 160,0 55,0 0,23 -32,0 0,23 32,0 0,23 -55,0 z"
           id="path2999"
           style="fill:#ffff00;fill-opacity:1" />
        <path
           inkscape:connector-curvature="0"
           d="m 226,0 55,0 0,20 -32,0 0,4 32,0 0,46 -55,0 0,-21 32,0 0,-4 -32,0 z"
           id="path3001"
           style="fill:#ffff00;fill-opacity:1" />
        <path
           inkscape:connector-curvature="0"
           d="m 292,0 55,0 0,20 -32,0 0,4 32,0 0,46 -55,0 0,-21 32,0 0,-4 -32,0 z"
           id="path3003"
           style="fill:#ffff00;fill-opacity:1" />
      </g>
      <g
         transform="translate(524,270.18109)"
         id="g3054"
         style="fill:#ffff00;fill-opacity:1">
        <path
           id="polygon3028"
           transform="translate(-353.93843,0)"
           d="M 428.57227,100.61914 461.58203,470.87695 609.7168,512 l 148.54297,-41.18164 33.04492,-370.19922 -362.73242,0 z m 67.49804,75.68555 113.71094,0 0.15625,0 113.59766,0 -1.08594,12.18359 -2.06836,23.02149 -0.91211,10.20703 -0.14453,0 -109.38672,0 -0.15625,0 -64.08203,0 4.14844,46.5 59.93359,0 0.15625,0 93.16211,0 12.23828,0 -1.10937,12.19336 -10.66993,119.55273 -0.68359,7.67188 -92.9375,25.75781 0,0.006 -0.20898,0.0586 -93.01954,-25.82226 -6.36132,-71.30274 21.00976,0 24.57422,0 3.23438,36.21875 50.57421,13.6543 0.041,-0.0117 0,-0.002 50.64648,-13.66993 5.27149,-58.89453 -55.76172,0 -0.15625,0 -101.46289,0 -11.16016,-125.13867 -1.08789,-12.18359 z"
           style="fill:#ffff00;fill-opacity:1"
           inkscape:connector-curvature="0" />
        <path
           id="polygon3030"
           transform="translate(-353.93843,0)"
           d="m 609.9375,130.89453 0,45.36328 112.63086,0 -1.08594,12.18164 -2.07031,23.02149 -0.91016,10.20703 -0.14648,0 -108.41797,0 0,46.32812 91.24414,0 12.23633,0 -1.10742,12.19532 -10.67188,119.55078 -0.68359,7.67187 -91.01758,25.22461 0,47.88477 120.03125,-33.27735 28.24023,-316.35156 -148.27148,0 z m 0,182.51172 0,72.00391 48.57031,-13.10938 5.27149,-58.89453 -53.8418,0 z"
           style="fill:#ffff00;fill-opacity:1"
           inkscape:connector-curvature="0" />
        <path
           inkscape:connector-curvature="0"
           d="m 108.382,0 23.077,0 0,22.8 21.11,0 0,-22.8 23.078,0 0,69.044 -23.077,0 0,-23.12 -21.11,0 0,23.12 -23.077,0 0,-69.044 z"
           id="path3036"
           style="fill:#ffff00;fill-opacity:1" />
        <path
           inkscape:connector-curvature="0"
           d="m 205.994,22.896 -20.316,0 0,-22.896 63.72,0 0,22.896 -20.325,0 0,46.148 -23.078,0 0,-46.148 z"
           id="path3038"
           style="fill:#ffff00;fill-opacity:1" />
        <path
           inkscape:connector-curvature="0"
           d="m 259.511,0 24.063,0 14.802,24.26 14.787,-24.26 24.072,0 0,69.044 -22.982,0 0,-34.222 -15.877,24.549 -0.397,0 -15.888,-24.549 0,34.222 -22.58,0 0,-69.044 z"
           id="path3040"
           style="fill:#ffff00;fill-opacity:1" />
        <path
           inkscape:connector-curvature="0"
           d="m 348.72,0 23.084,0 0,46.222 32.453,0 0,22.822 -55.537,0 0,-69.044 z"
           id="path3042"
           style="fill:#ffff00;fill-opacity:1" />
      </g>
    </g>
  </g>
</svg>
